CD_ROM_XA

CATALOG "0602517818866"

// Track 1
TRACK AUDIO
NO COPY
NO PRE_EMPHASIS
TWO_CHANNEL_AUDIO
ISRC "GBUM70808708"
FILE "data.wav" 0 03:26:53


// Track 2
TRACK AUDIO
NO COPY
NO PRE_EMPHASIS
TWO_CHANNEL_AUDIO
ISRC "GBUM70810780"
FILE "data.wav" 03:26:53 03:35:46
START 00:00:34


// Track 3
TRACK AUDIO
NO COPY
NO PRE_EMPHASIS
TWO_CHANNEL_AUDIO
ISRC "GBUM70808705"
FILE "data.wav" 07:02:24 04:15:03
START 00:00:17


// Track 4
TRACK AUDIO
NO COPY
NO PRE_EMPHASIS
TWO_CHANNEL_AUDIO
ISRC "GBUM70810804"
FILE "data.wav" 11:17:27 03:26:60
START 00:00:64


// Track 5
TRACK AUDIO
NO COPY
NO PRE_EMPHASIS
TWO_CHANNEL_AUDIO
ISRC "GBUM70810795"
FILE "data.wav" 14:44:12 03:17:34
START 00:02:04


// Track 6
TRACK AUDIO
NO COPY
NO PRE_EMPHASIS
TWO_CHANNEL_AUDIO
ISRC "GBUM70810805"
FILE "data.wav" 18:01:46 04:03:13
START 00:01:06


// Track 7
TRACK AUDIO
NO COPY
NO PRE_EMPHASIS
TWO_CHANNEL_AUDIO
ISRC "AUUM70800167"
FILE "data.wav" 22:04:59 03:40:53
START 00:00:50


// Track 8
TRACK AUDIO
NO COPY
NO PRE_EMPHASIS
TWO_CHANNEL_AUDIO
ISRC "GBUM70808467"
FILE "data.wav" 25:45:37 03:47:38
START 00:00:08


// Track 9
TRACK AUDIO
NO COPY
NO PRE_EMPHASIS
TWO_CHANNEL_AUDIO
ISRC "GBUM70810807"
FILE "data.wav" 29:33:00 03:44:32
START 00:01:43


// Track 10
TRACK AUDIO
NO COPY
NO PRE_EMPHASIS
TWO_CHANNEL_AUDIO
ISRC "GBUM70811315"
FILE "data.wav" 33:17:32 02:36:03
START 00:00:40


// Track 11
TRACK AUDIO
NO COPY
NO PRE_EMPHASIS
TWO_CHANNEL_AUDIO
ISRC "GBUM70810809"
FILE "data.wav" 35:53:35 03:34:50
START 00:00:50


// Track 12
TRACK AUDIO
NO COPY
NO PRE_EMPHASIS
TWO_CHANNEL_AUDIO
ISRC "GBUM70810814"
FILE "data.wav" 39:28:10 06:31:21
START 00:00:72


// Track 13
TRACK MODE2_FORM_MIX
NO COPY
ZERO MODE2_FORM_MIX 00:02:00
DATAFILE "data_13" 00:43:54 // length in bytes: 7659744
START 00:02:00

